<svg width="49" height="49" viewBox="0 0 49 49" fill="none" xmlns="http://www.w3.org/2000/svg">
<g clip-path="url(#clip0_320_280)">
<path d="M47.7829 9.08116H9.72524C9.65114 9.08116 9.5844 9.109 9.5143 9.12437L7.96634 3.98451C7.9489 3.92897 7.91177 3.88784 7.88712 3.83647C7.84487 3.30784 7.41402 2.88916 6.87499 2.88916C6.87403 2.88916 6.87195 2.88916 6.87083 2.88916L1.835 2.91061C1.2662 2.91381 0.808473 3.37666 0.810554 3.94434C0.812635 4.51106 1.27244 4.96879 1.83917 4.96879C1.84013 4.96879 1.84221 4.96879 1.84333 4.96879L6.10886 4.95022L15.9555 37.6294C14.9773 38.5233 14.353 39.7966 14.353 41.2253C14.353 43.9234 16.5396 46.111 19.2387 46.111C21.9367 46.111 24.1244 43.9232 24.1244 41.2253C24.1244 40.5217 23.9701 39.8572 23.7026 39.2535H37.9177C37.6503 39.8574 37.496 40.5217 37.496 41.2253C37.496 43.9234 39.6827 46.111 42.3817 46.111C45.0797 46.111 47.2674 43.9232 47.2674 41.2253C47.2674 38.5274 45.0796 36.3396 42.3817 36.3396C41.3572 36.3396 40.4079 36.6575 39.622 37.1965H21.9974C21.2115 36.6575 20.2631 36.3396 19.2387 36.3396C18.7295 36.3396 18.2481 36.4393 17.7862 36.5833L16.3173 31.71L42.2316 31.6893C42.6851 31.6893 43.0585 31.39 43.1944 30.9816C43.2295 30.9168 43.2674 30.854 43.288 30.7799L48.7734 10.5518C48.8085 10.4233 48.8125 10.2946 48.7981 10.1703C48.799 10.1487 48.8104 10.1312 48.8104 10.1106C48.8115 9.54193 48.3507 9.08116 47.7829 9.08116ZM42.3828 38.3959C43.9431 38.3959 45.2115 39.6641 45.2115 41.2245C45.2115 42.7848 43.9432 44.0531 42.3828 44.0531C40.8224 44.0531 39.5542 42.7849 39.5542 41.2245C39.5543 39.6641 40.8225 38.3959 42.3828 38.3959ZM19.2398 38.3959C20.8002 38.3959 22.0684 39.6641 22.0684 41.2245C22.0684 42.7848 20.8002 44.0531 19.2398 44.0531C17.6793 44.0531 16.4111 42.7849 16.4111 41.2245C16.4111 39.6641 17.6793 38.3959 19.2398 38.3959ZM41.4685 29.6332L15.6994 29.6539L10.1214 11.1393H46.4838L41.4685 29.6332Z" fill="black"/>
</g>
<defs>
<clipPath id="clip0_320_280">
<rect width="48" height="48" fill="white" transform="translate(0.810547 0.5)"/>
</clipPath>
</defs>
</svg>
