<svg width="150" height="150" viewBox="0 0 150 150" fill="none" xmlns="http://www.w3.org/2000/svg">
<path d="M28.4622 111.773C38.9472 111.773 49.4247 111.773 59.9097 111.773C76.6197 111.773 93.3222 111.773 110.032 111.773C113.872 111.773 117.705 111.773 121.537 111.773C121.845 111.773 122.07 111.66 122.242 111.495C122.265 111.473 122.295 111.458 122.317 111.435C122.34 111.413 122.347 111.39 122.37 111.368C122.535 111.195 122.647 110.963 122.647 110.655C122.647 89.8275 122.647 69 122.647 48.1725C122.647 45.225 122.647 42.285 122.647 39.345C122.647 38.745 122.137 38.2275 121.537 38.2275C111.052 38.2275 100.575 38.2275 90.0897 38.2275C73.3797 38.2275 56.6772 38.2275 39.9672 38.2275C36.1347 38.2275 32.2947 38.2275 28.4622 38.2275C27.8622 38.2275 27.3447 38.7375 27.3447 39.345C27.3447 60.1725 27.3447 81 27.3447 101.828C27.3447 104.775 27.3447 107.715 27.3447 110.655C27.3447 111.255 27.8622 111.773 28.4622 111.773ZM51.8622 93.9225C49.8372 92.97 47.8122 92.01 45.7947 91.0575C44.3772 90.39 42.4122 88.875 40.8447 89.49C38.4597 90.4275 36.1572 92.04 33.9072 93.2625C32.4597 94.05 31.0197 94.83 29.5797 95.6175C29.5797 85.0725 29.5797 74.5275 29.5797 63.9825C40.1847 70.5675 50.7897 77.16 61.3872 83.745C62.4597 84.4125 63.5397 85.08 64.6122 85.7475C63.9072 86.1975 63.2022 86.655 62.4972 87.105C58.9497 89.3775 55.4022 91.65 51.8622 93.9225ZM90.0972 109.545C73.3872 109.545 56.6847 109.545 39.9747 109.545C36.5097 109.545 33.0447 109.545 29.5797 109.545C29.5797 105.743 29.5797 101.948 29.5797 98.145C33.6147 95.955 37.6497 93.7575 41.6772 91.5675C43.7772 92.5575 45.8847 93.555 47.9847 94.545C49.1772 95.1075 51.2397 96.63 52.5897 96.105C53.4822 95.76 54.3747 94.9575 55.1772 94.44C57.0822 93.2175 58.9872 91.995 60.8922 90.7725C71.7222 83.82 82.5522 76.875 93.3897 69.9225C96.1197 68.175 98.8497 66.42 101.58 64.665C107.865 67.6875 114.15 70.7175 120.435 73.74C120.435 83.1 120.435 92.46 120.435 101.82C120.435 104.393 120.435 106.965 120.435 109.538C110.31 109.545 100.207 109.545 90.0972 109.545ZM59.9097 40.455C76.6197 40.455 93.3222 40.455 110.032 40.455C113.497 40.455 116.962 40.455 120.427 40.455C120.427 50.73 120.427 61.005 120.427 71.28C115.582 68.9475 110.737 66.615 105.892 64.2825C104.685 63.6975 102.307 61.9275 100.912 62.4525C99.9072 62.8275 98.8947 63.75 97.9947 64.3275C87.5622 71.0175 77.1297 77.715 66.6972 84.405C55.7247 77.5875 44.7522 70.77 33.7797 63.9525C32.3772 63.0825 30.9822 62.2125 29.5797 61.3425C29.5797 56.9475 29.5797 52.56 29.5797 48.165C29.5797 45.5925 29.5797 43.02 29.5797 40.4475C39.6897 40.455 49.7997 40.455 59.9097 40.455ZM58.4547 68.505C63.2622 67.6425 66.6972 63.27 66.7647 58.455C66.7047 54.195 64.0947 50.3925 60.0972 48.87C56.1072 47.3475 51.3597 48.6225 48.6672 51.93C45.9672 55.245 45.5322 59.9925 47.7447 63.69C49.9422 67.38 54.2472 69.2625 58.4547 68.505ZM49.6647 54.3525C51.3522 51.525 54.7422 49.965 57.9822 50.58C61.7772 51.3075 64.4847 54.615 64.5372 58.455C64.4922 61.7775 62.4447 64.8375 59.2797 65.9775C56.0847 67.125 52.4622 66.1275 50.3172 63.5025C48.2097 60.93 47.9622 57.195 49.6647 54.3525Z" fill="black"/>
<rect x="0.5" y="0.5" width="149" height="149" stroke="black"/>
</svg>
