<svg width="48" height="49" viewBox="0 0 48 49" fill="none" xmlns="http://www.w3.org/2000/svg">
<path d="M24 8C18.2188 8 13.5 12.7188 13.5 18.5C13.5 22.1133 15.3467 25.3282 18.1406 27.2188C12.7899 29.5135 9 34.8219 9 41H12C12 34.354 17.354 29 24 29C30.646 29 34.5 34.354 34.5 41H39C39 34.8219 35.2101 29.5135 29.8594 27.2188C32.6533 25.3282 34.5 22.1133 34.5 18.5C34.5 12.7188 29.7812 8 24 8ZM24 11C28.1599 11 31.5 14.3401 31.5 18.5C31.5 22.6599 28.1599 26 24 26C19.8401 26 16.5 22.6599 16.5 18.5C16.5 14.3401 19.8401 11 24 11Z" fill="black"/>
</svg>
